{
    "asset" : {
        "generator" : "Khronos glTF Blender I/O v1.6.16",
        "version" : "2.0"
    },
    "scene" : 0,
    "scenes" : [
        {
            "name" : "Scene",
            "nodes" : [
                0
            ]
        }
    ],
    "nodes" : [
        {
            "mesh" : 0,
            "name" : "Mesh_0.001"
        }
    ],
    "materials" : [
        {
            "doubleSided" : true,
            "name" : "mat_0-worm6.jpg",
            "pbrMetallicRoughness" : {
                "baseColorFactor" : [
                    0.6980389952659607,
                    0.6980389952659607,
                    0.6980389952659607,
                    1
                ],
                "baseColorTexture" : {
                    "index" : 0
                },
                "metallicFactor" : 0.5,
                "roughnessFactor" : 0.5
            }
        }
    ],
    "meshes" : [
        {
            "name" : "Mesh_0.001",
            "primitives" : [
                {
                    "attributes" : {
                        "POSITION" : 0,
                        "NORMAL" : 1,
                        "TEXCOORD_0" : 2
                    },
                    "indices" : 3,
                    "material" : 0
                }
            ]
        }
    ],
    "textures" : [
        {
            "sampler" : 0,
            "source" : 0
        }
    ],
    "images" : [
        {
            "bufferView" : 4,
            "mimeType" : "image/jpeg",
            "name" : "Image_0"
        }
    ],
    "accessors" : [
        {
            "bufferView" : 0,
            "componentType" : 5126,
            "count" : 3660,
            "max" : [
                0.06338697671890259,
                0.1266239881515503,
                0.08599493652582169
            ],
            "min" : [
                -0.06741790473461151,
                0.09691841900348663,
                -0.09042449295520782
            ],
            "type" : "VEC3"
        },
        {
            "bufferView" : 1,
            "componentType" : 5126,
            "count" : 3660,
            "type" : "VEC3"
        },
        {
            "bufferView" : 2,
            "componentType" : 5126,
            "count" : 3660,
            "type" : "VEC2"
        },
        {
            "bufferView" : 3,
            "componentType" : 5123,
            "count" : 6132,
            "type" : "SCALAR"
        }
    ],
    "bufferViews" : [
        {
            "buffer" : 0,
            "byteLength" : 43920,
            "byteOffset" : 0
        },
        {
            "buffer" : 0,
            "byteLength" : 43920,
            "byteOffset" : 43920
        },
        {
            "buffer" : 0,
            "byteLength" : 29280,
            "byteOffset" : 87840
        },
        {
            "buffer" : 0,
            "byteLength" : 12264,
            "byteOffset" : 117120
        },
        {
            "buffer" : 0,
            "byteLength" : 148331,
            "byteOffset" : 129384
        }
    ],
    "samplers" : [
        {
            "magFilter" : 9729,
            "minFilter" : 9987
        }
    ],
    "buffers" : [
        {
            "byteLength" : 277716,
            "uri" : "data:application/octet-stream;base64,"
        }
    ]
}
