{
    "asset" : {
        "generator" : "Khronos glTF Blender I/O v1.6.16",
        "version" : "2.0"
    },
    "scene" : 0,
    "scenes" : [
        {
            "name" : "Scene",
            "nodes" : [
                0,
                1,
                2,
                3
            ]
        }
    ],
    "nodes" : [
        {
            "mesh" : 0,
            "name" : "Cube"
        },
        {
            "mesh" : 1,
            "name" : "Icosphere"
        },
        {
            "mesh" : 2,
            "name" : "Cylinder"
        },
        {
            "mesh" : 3,
            "name" : "Torus"
        }
    ],
    "materials" : [
        {
            "doubleSided" : true,
            "name" : "Cube_1",
            "pbrMetallicRoughness" : {
                "baseColorFactor" : [
                    0.1468050330877304,
                    0.8000000715255737,
                    0.045124661177396774,
                    1
                ],
                "metallicFactor" : 0,
                "roughnessFactor" : 0.4000000059604645
            }
        },
        {
            "doubleSided" : true,
            "name" : "Icosphere",
            "pbrMetallicRoughness" : {
                "baseColorFactor" : [
                    0.8000000715255737,
                    0.7806220650672913,
                    0.025775495916604996,
                    1
                ],
                "metallicFactor" : 0,
                "roughnessFactor" : 0.5
            }
        },
        {
            "doubleSided" : true,
            "name" : "Cylinder_1",
            "pbrMetallicRoughness" : {
                "baseColorFactor" : [
                    0.8000000715255737,
                    0.03429168462753296,
                    0.05086242035031319,
                    1
                ],
                "metallicFactor" : 0,
                "roughnessFactor" : 0.5
            }
        },
        {
            "doubleSided" : true,
            "name" : "Torus",
            "pbrMetallicRoughness" : {
                "baseColorFactor" : [
                    0.8000000715255737,
                    0.030947890132665634,
                    0.6064848303794861,
                    1
                ],
                "metallicFactor" : 0,
                "roughnessFactor" : 0.5
            }
        }
    ],
    "meshes" : [
        {
            "name" : "Cube",
            "primitives" : [
                {
                    "attributes" : {
                        "POSITION" : 0,
                        "NORMAL" : 1,
                        "TEXCOORD_0" : 2
                    },
                    "indices" : 3,
                    "material" : 0
                }
            ]
        },
        {
            "name" : "Icosphere",
            "primitives" : [
                {
                    "attributes" : {
                        "POSITION" : 4,
                        "NORMAL" : 5,
                        "TEXCOORD_0" : 6
                    },
                    "indices" : 7,
                    "material" : 1
                }
            ]
        },
        {
            "name" : "Cylinder",
            "primitives" : [
                {
                    "attributes" : {
                        "POSITION" : 8,
                        "NORMAL" : 9,
                        "TEXCOORD_0" : 10
                    },
                    "indices" : 11,
                    "material" : 2
                }
            ]
        },
        {
            "name" : "Torus",
            "primitives" : [
                {
                    "attributes" : {
                        "POSITION" : 12,
                        "NORMAL" : 13,
                        "TEXCOORD_0" : 14
                    },
                    "indices" : 15,
                    "material" : 3
                }
            ]
        }
    ],
    "accessors" : [
        {
            "bufferView" : 0,
            "componentType" : 5126,
            "count" : 24,
            "max" : [
                -1.2762224674224854,
                2,
                4.0004754066467285
            ],
            "min" : [
                -3.2762224674224854,
                0,
                2.0004754066467285
            ],
            "type" : "VEC3"
        },
        {
            "bufferView" : 1,
            "componentType" : 5126,
            "count" : 24,
            "type" : "VEC3"
        },
        {
            "bufferView" : 2,
            "componentType" : 5126,
            "count" : 24,
            "type" : "VEC2"
        },
        {
            "bufferView" : 3,
            "componentType" : 5123,
            "count" : 36,
            "type" : "SCALAR"
        },
        {
            "bufferView" : 4,
            "componentType" : 5126,
            "count" : 240,
            "max" : [
                -1.4458732604980469,
                2,
                -3.00063419342041
            ],
            "min" : [
                -3.347989082336426,
                0,
                -5.00063419342041
            ],
            "type" : "VEC3"
        },
        {
            "bufferView" : 5,
            "componentType" : 5126,
            "count" : 240,
            "type" : "VEC3"
        },
        {
            "bufferView" : 6,
            "componentType" : 5126,
            "count" : 240,
            "type" : "VEC2"
        },
        {
            "bufferView" : 7,
            "componentType" : 5123,
            "count" : 240,
            "type" : "SCALAR"
        },
        {
            "bufferView" : 8,
            "componentType" : 5126,
            "count" : 192,
            "max" : [
                3.362442970275879,
                2,
                -1.6900813579559326
            ],
            "min" : [
                1.362442970275879,
                0,
                -3.6900813579559326
            ],
            "type" : "VEC3"
        },
        {
            "bufferView" : 9,
            "componentType" : 5126,
            "count" : 192,
            "type" : "VEC3"
        },
        {
            "bufferView" : 10,
            "componentType" : 5126,
            "count" : 192,
            "type" : "VEC2"
        },
        {
            "bufferView" : 11,
            "componentType" : 5123,
            "count" : 372,
            "type" : "SCALAR"
        },
        {
            "bufferView" : 12,
            "componentType" : 5126,
            "count" : 512,
            "max" : [
                4.244688034057617,
                1,
                3.6986241340637207
            ],
            "min" : [
                1.244687795639038,
                0,
                0.6986241340637207
            ],
            "type" : "VEC3"
        },
        {
            "bufferView" : 13,
            "componentType" : 5126,
            "count" : 512,
            "type" : "VEC3"
        },
        {
            "bufferView" : 14,
            "componentType" : 5126,
            "count" : 512,
            "type" : "VEC2"
        },
        {
            "bufferView" : 15,
            "componentType" : 5123,
            "count" : 768,
            "type" : "SCALAR"
        }
    ],
    "bufferViews" : [
        {
            "buffer" : 0,
            "byteLength" : 288,
            "byteOffset" : 0
        },
        {
            "buffer" : 0,
            "byteLength" : 288,
            "byteOffset" : 288
        },
        {
            "buffer" : 0,
            "byteLength" : 192,
            "byteOffset" : 576
        },
        {
            "buffer" : 0,
            "byteLength" : 72,
            "byteOffset" : 768
        },
        {
            "buffer" : 0,
            "byteLength" : 2880,
            "byteOffset" : 840
        },
        {
            "buffer" : 0,
            "byteLength" : 2880,
            "byteOffset" : 3720
        },
        {
            "buffer" : 0,
            "byteLength" : 1920,
            "byteOffset" : 6600
        },
        {
            "buffer" : 0,
            "byteLength" : 480,
            "byteOffset" : 8520
        },
        {
            "buffer" : 0,
            "byteLength" : 2304,
            "byteOffset" : 9000
        },
        {
            "buffer" : 0,
            "byteLength" : 2304,
            "byteOffset" : 11304
        },
        {
            "buffer" : 0,
            "byteLength" : 1536,
            "byteOffset" : 13608
        },
        {
            "buffer" : 0,
            "byteLength" : 744,
            "byteOffset" : 15144
        },
        {
            "buffer" : 0,
            "byteLength" : 6144,
            "byteOffset" : 15888
        },
        {
            "buffer" : 0,
            "byteLength" : 6144,
            "byteOffset" : 22032
        },
        {
            "buffer" : 0,
            "byteLength" : 4096,
            "byteOffset" : 28176
        },
        {
            "buffer" : 0,
            "byteLength" : 1536,
            "byteOffset" : 32272
        }
    ],
    "buffers" : [
        {
            "byteLength" : 33808,
            "uri" : "data:application/octet-stream;base64,"
        }
    ]
}
