{
    "asset" : {
        "generator" : "Khronos glTF Blender I/O v1.6.16",
        "version" : "2.0"
    },
    "scene" : 0,
    "scenes" : [
        {
            "name" : "Scene",
            "nodes" : [
                0,
                1,
                2,
                3
            ]
        }
    ],
    "nodes" : [
        {
            "mesh" : 0,
            "name" : "Cube"
        },
        {
            "mesh" : 1,
            "name" : "Torus"
        },
        {
            "mesh" : 2,
            "name" : "Cylinder"
        },
        {
            "mesh" : 3,
            "name" : "Icosphere"
        }
    ],
    "materials" : [
        {
            "doubleSided" : true,
            "name" : "Cube_2",
            "pbrMetallicRoughness" : {
                "baseColorFactor" : [
                    0.10852430015802383,
                    0.12179888039827347,
                    0.8000000715255737,
                    1
                ],
                "metallicFactor" : 0,
                "roughnessFactor" : 0.5
            }
        },
        {
            "doubleSided" : true,
            "name" : "Torus",
            "pbrMetallicRoughness" : {
                "baseColorFactor" : [
                    0.8000000715255737,
                    0.030947890132665634,
                    0.6064848303794861,
                    1
                ],
                "metallicFactor" : 0,
                "roughnessFactor" : 0.5
            }
        },
        {
            "doubleSided" : true,
            "name" : "Cylinder_2",
            "pbrMetallicRoughness" : {
                "baseColorFactor" : [
                    0.057456985116004944,
                    0.0665164664387703,
                    0.8000000715255737,
                    1
                ],
                "metallicFactor" : 0,
                "roughnessFactor" : 0.5
            }
        },
        {
            "doubleSided" : true,
            "name" : "Icosphere",
            "pbrMetallicRoughness" : {
                "baseColorFactor" : [
                    0.8000000715255737,
                    0.7806220650672913,
                    0.025775495916604996,
                    1
                ],
                "metallicFactor" : 0,
                "roughnessFactor" : 0.5
            }
        }
    ],
    "meshes" : [
        {
            "name" : "Cube",
            "primitives" : [
                {
                    "attributes" : {
                        "POSITION" : 0,
                        "NORMAL" : 1,
                        "TEXCOORD_0" : 2
                    },
                    "indices" : 3,
                    "material" : 0
                }
            ]
        },
        {
            "name" : "Torus",
            "primitives" : [
                {
                    "attributes" : {
                        "POSITION" : 4,
                        "NORMAL" : 5,
                        "TEXCOORD_0" : 6
                    },
                    "indices" : 7,
                    "material" : 1
                }
            ]
        },
        {
            "name" : "Cylinder",
            "primitives" : [
                {
                    "attributes" : {
                        "POSITION" : 8,
                        "NORMAL" : 9,
                        "TEXCOORD_0" : 10
                    },
                    "indices" : 11,
                    "material" : 2
                }
            ]
        },
        {
            "name" : "Icosphere",
            "primitives" : [
                {
                    "attributes" : {
                        "POSITION" : 12,
                        "NORMAL" : 13,
                        "TEXCOORD_0" : 14
                    },
                    "indices" : 15,
                    "material" : 3
                }
            ]
        }
    ],
    "accessors" : [
        {
            "bufferView" : 0,
            "componentType" : 5126,
            "count" : 24,
            "max" : [
                0.058600518852472305,
                0.3999999761581421,
                0.36813634634017944
            ],
            "min" : [
                -0.3413994610309601,
                0,
                -0.03186364471912384
            ],
            "type" : "VEC3"
        },
        {
            "bufferView" : 1,
            "componentType" : 5126,
            "count" : 24,
            "type" : "VEC3"
        },
        {
            "bufferView" : 2,
            "componentType" : 5126,
            "count" : 24,
            "type" : "VEC2"
        },
        {
            "bufferView" : 3,
            "componentType" : 5123,
            "count" : 36,
            "type" : "SCALAR"
        },
        {
            "bufferView" : 4,
            "componentType" : 5126,
            "count" : 512,
            "max" : [
                0.3359866440296173,
                0.6319586634635925,
                0.2706446349620819
            ],
            "min" : [
                -0.2640133798122406,
                0.4319586455821991,
                -0.3293553292751312
            ],
            "type" : "VEC3"
        },
        {
            "bufferView" : 5,
            "componentType" : 5126,
            "count" : 512,
            "type" : "VEC3"
        },
        {
            "bufferView" : 6,
            "componentType" : 5126,
            "count" : 512,
            "type" : "VEC2"
        },
        {
            "bufferView" : 7,
            "componentType" : 5123,
            "count" : 768,
            "type" : "SCALAR"
        },
        {
            "bufferView" : 8,
            "componentType" : 5126,
            "count" : 192,
            "max" : [
                0.03129984810948372,
                0.3999999761581421,
                -0.11528754979372025
            ],
            "min" : [
                -0.3687001168727875,
                0,
                -0.5152875185012817
            ],
            "type" : "VEC3"
        },
        {
            "bufferView" : 9,
            "componentType" : 5126,
            "count" : 192,
            "type" : "VEC3"
        },
        {
            "bufferView" : 10,
            "componentType" : 5126,
            "count" : 192,
            "type" : "VEC2"
        },
        {
            "bufferView" : 11,
            "componentType" : 5123,
            "count" : 372,
            "type" : "SCALAR"
        },
        {
            "bufferView" : 12,
            "componentType" : 5126,
            "count" : 240,
            "max" : [
                0.4667530655860901,
                0.3999999761581421,
                0.03768719360232353
            ],
            "min" : [
                0.08632990717887878,
                0,
                -0.36231276392936707
            ],
            "type" : "VEC3"
        },
        {
            "bufferView" : 13,
            "componentType" : 5126,
            "count" : 240,
            "type" : "VEC3"
        },
        {
            "bufferView" : 14,
            "componentType" : 5126,
            "count" : 240,
            "type" : "VEC2"
        },
        {
            "bufferView" : 15,
            "componentType" : 5123,
            "count" : 240,
            "type" : "SCALAR"
        }
    ],
    "bufferViews" : [
        {
            "buffer" : 0,
            "byteLength" : 288,
            "byteOffset" : 0
        },
        {
            "buffer" : 0,
            "byteLength" : 288,
            "byteOffset" : 288
        },
        {
            "buffer" : 0,
            "byteLength" : 192,
            "byteOffset" : 576
        },
        {
            "buffer" : 0,
            "byteLength" : 72,
            "byteOffset" : 768
        },
        {
            "buffer" : 0,
            "byteLength" : 6144,
            "byteOffset" : 840
        },
        {
            "buffer" : 0,
            "byteLength" : 6144,
            "byteOffset" : 6984
        },
        {
            "buffer" : 0,
            "byteLength" : 4096,
            "byteOffset" : 13128
        },
        {
            "buffer" : 0,
            "byteLength" : 1536,
            "byteOffset" : 17224
        },
        {
            "buffer" : 0,
            "byteLength" : 2304,
            "byteOffset" : 18760
        },
        {
            "buffer" : 0,
            "byteLength" : 2304,
            "byteOffset" : 21064
        },
        {
            "buffer" : 0,
            "byteLength" : 1536,
            "byteOffset" : 23368
        },
        {
            "buffer" : 0,
            "byteLength" : 744,
            "byteOffset" : 24904
        },
        {
            "buffer" : 0,
            "byteLength" : 2880,
            "byteOffset" : 25648
        },
        {
            "buffer" : 0,
            "byteLength" : 2880,
            "byteOffset" : 28528
        },
        {
            "buffer" : 0,
            "byteLength" : 1920,
            "byteOffset" : 31408
        },
        {
            "buffer" : 0,
            "byteLength" : 480,
            "byteOffset" : 33328
        }
    ],
    "buffers" : [
        {
            "byteLength" : 33808,
            "uri" : "data:application/octet-stream;base64,"
        }
    ]
}
